<?xml version="1.0" encoding="UTF-8"?>
<svg xmlns="http://www.w3.org/2000/svg" width="200" height="220" viewBox="0 0 200 220">
<rect width="200" height="220" fill="#0F172A"></rect><path d="M100 16 L176 44 V118 C176 156 144 184 100 200 C56 184 24 156 24 118 V44 Z" fill="#EDF1F7"></path><g fill="none" stroke="#0F172A" stroke-width="9" stroke-linecap="round" stroke-linejoin="round">
    <path d="M72 60 V148"></path>
    <path d="M72 60 H110 C122 60 130 68 130 80 C130 92 122 100 110 100 H72"></path>
    <path d="M72 100 H114 C128 100 138 110 138 124 C138 138 128 148 114 148 H72"></path>
  </g><path d="M86 60 V52 C86 46 92 42 100 42 C108 42 114 46 114 52 V60" fill="none" stroke="#0F172A" stroke-width="4" stroke-linecap="round"></path><g fill="#3D5AFE">
    <circle cx="86" cy="174" r="3.5"></circle>
    <circle cx="100" cy="174" r="3.5"></circle>
    <circle cx="114" cy="174" r="3.5"></circle>
  </g>
</svg>